<svg width="525" height="69" viewBox="0 0 525 69" fill="none" xmlns="http://www.w3.org/2000/svg">
<path d="M56.9036 56.9587C59.9202 56.9587 62.3011 56.3978 64.0462 55.2759C65.8162 54.1541 66.7013 52.6333 66.7013 50.7137C66.7013 49.4173 66.4644 48.3578 65.9907 47.5351C65.542 46.6874 64.632 45.9146 63.2609 45.2165C61.9146 44.5185 59.8828 43.8329 57.1654 43.1598C54.1488 42.4119 51.6807 41.6016 49.7611 40.7291C47.8664 39.8316 46.383 38.6723 45.311 37.2513C44.264 35.8303 43.7404 34.0228 43.7404 31.829C43.7404 29.66 44.3637 27.7653 45.6102 26.1448C46.8567 24.5244 48.6018 23.2779 50.8456 22.4053C53.1142 21.5327 55.7319 21.0965 58.6986 21.0965C61.6653 21.0965 64.3329 21.4953 66.7013 22.2931C69.0946 23.066 71.1887 24.113 72.9837 25.4343L70.2164 29.6974C68.571 28.5755 66.8384 27.7155 65.0185 27.1171C63.2235 26.4939 61.1418 26.1822 58.7734 26.1822C55.8067 26.1822 53.6378 26.6435 52.2666 27.5659C50.9204 28.4634 50.2472 29.7223 50.2472 31.3428C50.2472 32.5145 50.5589 33.4744 51.1821 34.2223C51.8303 34.9702 52.8649 35.6433 54.286 36.2416C55.7319 36.815 57.8759 37.4881 60.718 38.261C63.56 39.0338 65.891 39.8939 67.7109 40.8413C69.5308 41.7886 70.9519 43.0351 71.974 44.5808C72.9962 46.1016 73.5072 48.0461 73.5072 50.4145C73.5072 53.082 72.7344 55.3008 71.1887 57.0709C69.643 58.816 67.6112 60.0999 65.0932 60.9226C62.6002 61.7453 59.8703 62.1567 56.9036 62.1567C50.7209 62.1567 45.5853 60.3866 41.4967 56.8465L45.0867 52.6956C46.6822 54.0419 48.4897 55.0889 50.509 55.8368C52.5284 56.5848 54.6599 56.9587 56.9036 56.9587Z" fill="white"/>
<path d="M106.732 52.6956C106.732 54.2413 106.981 55.3881 107.479 56.136C107.978 56.859 108.801 57.395 109.948 57.744L108.414 62.1567C104.625 61.6581 102.219 59.8132 101.197 56.6222C99.8009 58.4421 98.0308 59.8257 95.8868 60.773C93.7677 61.6955 91.4243 62.1567 88.8565 62.1567C86.2637 62.1567 84.0075 61.6581 82.0879 60.6609C80.1683 59.6637 78.6974 58.2551 77.6752 56.4352C76.6531 54.5903 76.142 52.4463 76.142 50.0032C76.142 45.9395 77.7251 42.8232 80.8912 40.6543C84.0574 38.4853 88.6321 37.4009 94.6154 37.4009H100.412V34.1101C100.412 31.3677 99.6139 29.3858 98.0184 28.1642C96.4228 26.9177 94.0918 26.2944 91.0254 26.2944C88.0587 26.2944 84.6432 26.9675 80.779 28.3138L79.1336 23.5646C83.5214 21.9192 87.8094 21.0965 91.9977 21.0965C96.8092 21.0965 100.462 22.2308 102.955 24.4994C105.473 26.7432 106.732 29.847 106.732 33.8109V52.6956ZM90.4645 57.3701C92.409 57.3701 94.2539 56.8839 95.999 55.9116C97.7691 54.9144 99.2399 53.5433 100.412 51.7981V41.664H94.7276C90.5642 41.664 87.5476 42.3745 85.6779 43.7955C83.8081 45.2165 82.8732 47.2608 82.8732 49.9284C82.8732 54.8895 85.4036 57.3701 90.4645 57.3701Z" fill="white"/>
<path d="M139.507 21.0965C141.751 21.0965 143.583 21.8818 145.004 23.4524C146.425 24.998 147.136 27.8401 147.136 31.9785V61.2966H141.302V32.9882C141.302 31.1184 141.24 29.7223 141.115 28.7999C140.99 27.8526 140.716 27.1545 140.292 26.7058C139.869 26.2321 139.195 25.9953 138.273 25.9953C135.705 25.9953 133.412 27.5659 131.392 30.7071V61.2966H125.521V32.9882C125.521 31.1184 125.459 29.7223 125.334 28.7999C125.209 27.8526 124.935 27.1545 124.511 26.7058C124.088 26.2321 123.415 25.9953 122.492 25.9953C119.924 25.9953 117.631 27.5659 115.611 30.7071V61.2966H109.815V21.9192H114.751L115.125 26.4814C116.322 24.7612 117.593 23.4399 118.94 22.5175C120.286 21.5701 121.869 21.0965 123.689 21.0965C127.403 21.0965 129.784 22.8291 130.831 26.2944C132.003 24.5992 133.262 23.3153 134.608 22.4427C135.979 21.5452 137.612 21.0965 139.507 21.0965Z" fill="white"/>
<path d="M154.856 49.8162C154.856 52.384 155.38 54.2538 156.427 55.4255C157.499 56.5723 159.182 57.1457 161.475 57.1457C163.544 57.1457 165.551 56.5474 167.496 55.3507C169.465 54.1541 171.011 52.6707 172.133 50.9006V21.9192H178.415V61.2966H173.068L172.544 55.9864C171.024 57.931 169.129 59.4517 166.86 60.5487C164.616 61.6207 162.31 62.1567 159.942 62.1567C156.178 62.1567 153.336 61.1595 151.416 59.165C149.521 57.1457 148.574 54.2787 148.574 50.5641V21.9192H154.856V49.8162Z" fill="white"/>
<path d="M188.529 43.8329C188.629 46.7747 189.202 49.2303 190.249 51.1998C191.297 53.1444 192.668 54.5903 194.363 55.5377C196.058 56.4601 197.953 56.9213 200.047 56.9213C201.992 56.9213 203.774 56.6346 205.395 56.0612C207.04 55.4878 208.76 54.5903 210.555 53.3687L213.509 57.5196C211.665 58.9656 209.546 60.0999 207.152 60.9226C204.784 61.7453 202.391 62.1567 199.972 62.1567C196.208 62.1567 192.967 61.3091 190.249 59.6138C187.532 57.9185 185.463 55.5252 184.042 52.4339C182.646 49.3425 181.948 45.7525 181.948 41.664C181.948 37.7 182.658 34.1599 184.079 31.0437C185.5 27.9274 187.507 25.4967 190.1 23.7515C192.693 21.9815 195.709 21.0965 199.15 21.0965C202.44 21.0965 205.282 21.8693 207.676 23.415C210.094 24.9607 211.939 27.1919 213.21 30.1088C214.507 33.0007 215.155 36.4286 215.155 40.3925C215.155 41.5393 215.105 42.6861 215.005 43.8329H188.529ZM199.224 26.257C196.183 26.257 193.702 27.329 191.783 29.473C189.888 31.5921 188.816 34.7583 188.567 38.9715H209.097C209.022 34.8331 208.112 31.6794 206.367 29.5104C204.622 27.3415 202.241 26.257 199.224 26.257Z" fill="white"/>
<path d="M233.944 51.5738C233.944 53.4186 234.518 54.7773 235.665 55.6499C236.836 56.4975 238.432 56.9213 240.451 56.9213C242.57 56.9213 244.777 56.4601 247.07 55.5377L248.753 60.1373C247.556 60.7357 246.16 61.2218 244.565 61.5957C242.969 61.9697 241.249 62.1567 239.404 62.1567C237.086 62.1567 235.029 61.7204 233.234 60.8478C231.464 59.9753 230.093 58.7163 229.12 57.0709C228.148 55.4255 227.662 53.4809 227.662 51.2372V11.0371H215.583V6.06348H233.944V51.5738Z" fill="white"/>
<path d="M261.933 55.5377C261.933 54.341 262.22 53.2441 262.793 52.2469C263.367 51.2497 264.152 50.4644 265.149 49.891C266.147 49.2926 267.256 48.9935 268.478 48.9935C269.724 48.9935 270.846 49.2926 271.843 49.891C272.865 50.4644 273.663 51.2497 274.237 52.2469C274.81 53.2441 275.097 54.341 275.097 55.5377C275.097 56.7593 274.81 57.8811 274.237 58.9033C273.663 59.9005 272.865 60.6983 271.843 61.2966C270.846 61.87 269.724 62.1567 268.478 62.1567C267.256 62.1567 266.147 61.87 265.149 61.2966C264.152 60.6983 263.367 59.9005 262.793 58.9033C262.22 57.8811 261.933 56.7593 261.933 55.5377Z" fill="white"/>
<path d="M315.239 21.0591C316.261 21.0591 317.196 21.1339 318.044 21.2834C318.891 21.4081 319.814 21.62 320.811 21.9192L319.913 35.2319H314.753V26.8554H314.416C311.375 26.8554 308.782 27.9274 306.638 30.0714C304.494 32.2154 302.761 35.4563 301.44 39.7942V56.4726H309.443V61.2966H289.025V56.4726H295.158V26.7432H289.025V21.9192H299.944L301.104 31.2306C302.699 27.8152 304.594 25.2723 306.788 23.602C309.006 21.9067 311.824 21.0591 315.239 21.0591Z" fill="white"/>
<path d="M351.866 52.6956C351.866 54.2413 352.116 55.3881 352.614 56.136C353.113 56.859 353.936 57.395 355.082 57.744L353.549 62.1567C349.76 61.6581 347.354 59.8132 346.332 56.6222C344.936 58.4421 343.166 59.8257 341.022 60.773C338.903 61.6955 336.559 62.1567 333.991 62.1567C331.399 62.1567 329.142 61.6581 327.223 60.6609C325.303 59.6637 323.832 58.2551 322.81 56.4352C321.788 54.5903 321.277 52.4463 321.277 50.0032C321.277 45.9395 322.86 42.8232 326.026 40.6543C329.192 38.4853 333.767 37.4009 339.75 37.4009H345.546V34.1101C345.546 31.3677 344.749 29.3858 343.153 28.1642C341.558 26.9177 339.227 26.2944 336.16 26.2944C333.194 26.2944 329.778 26.9675 325.914 28.3138L324.268 23.5646C328.656 21.9192 332.944 21.0965 337.133 21.0965C341.944 21.0965 345.596 22.2308 348.089 24.4994C350.607 26.7432 351.866 29.847 351.866 33.8109V52.6956ZM335.599 57.3701C337.544 57.3701 339.389 56.8839 341.134 55.9116C342.904 54.9144 344.375 53.5433 345.546 51.7981V41.664H339.862C335.699 41.664 332.682 42.3745 330.813 43.7955C328.943 45.2165 328.008 47.2608 328.008 49.9284C328.008 54.8895 330.538 57.3701 335.599 57.3701Z" fill="white"/>
<path d="M384.642 21.0965C386.886 21.0965 388.718 21.8818 390.139 23.4524C391.56 24.998 392.271 27.8401 392.271 31.9785V61.2966H386.437V32.9882C386.437 31.1184 386.375 29.7223 386.25 28.7999C386.125 27.8526 385.851 27.1545 385.427 26.7058C385.003 26.2321 384.33 25.9953 383.408 25.9953C380.84 25.9953 378.546 27.5659 376.527 30.7071V61.2966H370.656V32.9882C370.656 31.1184 370.594 29.7223 370.469 28.7999C370.344 27.8526 370.07 27.1545 369.646 26.7058C369.222 26.2321 368.549 25.9953 367.627 25.9953C365.059 25.9953 362.765 27.5659 360.746 30.7071V61.2966H354.95V21.9192H359.886L360.26 26.4814C361.457 24.7612 362.728 23.4399 364.074 22.5175C365.421 21.5701 367.004 21.0965 368.824 21.0965C372.538 21.0965 374.919 22.8291 375.966 26.2944C377.138 24.5992 378.397 23.3153 379.743 22.4427C381.114 21.5452 382.747 21.0965 384.642 21.0965Z" fill="white"/>
<path d="M408.704 21.0965C412.344 21.0965 415.423 21.9316 417.941 23.602C420.459 25.2474 422.354 27.6157 423.625 30.7071C424.921 33.7735 425.57 37.4009 425.57 41.5892C425.57 45.6528 424.909 49.2303 423.588 52.3217C422.291 55.413 420.372 57.8313 417.829 59.5764C415.286 61.2966 412.219 62.1567 408.629 62.1567C404.99 62.1567 401.898 61.3215 399.355 59.6512C396.837 57.9559 394.93 55.5751 393.634 52.5087C392.337 49.4422 391.689 45.8273 391.689 41.664C391.689 37.5754 392.337 33.9854 393.634 30.8941C394.955 27.8027 396.887 25.3969 399.43 23.6767C401.998 21.9566 405.089 21.0965 408.704 21.0965ZM408.704 26.2196C405.289 26.2196 402.721 27.4911 401.001 30.034C399.281 32.5519 398.42 36.4286 398.42 41.664C398.42 46.8245 399.268 50.6763 400.963 53.2192C402.659 55.7371 405.214 56.9961 408.629 56.9961C412.045 56.9961 414.6 55.7371 416.296 53.2192C417.991 50.6763 418.838 46.7996 418.838 41.5892C418.838 36.4037 417.991 32.5519 416.296 30.034C414.6 27.4911 412.07 26.2196 408.704 26.2196Z" fill="white"/>
<path d="M442.115 56.9587C445.132 56.9587 447.513 56.3978 449.258 55.2759C451.028 54.1541 451.913 52.6333 451.913 50.7137C451.913 49.4173 451.676 48.3578 451.203 47.5351C450.754 46.6874 449.844 45.9146 448.473 45.2165C447.126 44.5185 445.095 43.8329 442.377 43.1598C439.361 42.4119 436.893 41.6016 434.973 40.7291C433.078 39.8316 431.595 38.6723 430.523 37.2513C429.476 35.8303 428.952 34.0228 428.952 31.829C428.952 29.66 429.575 27.7653 430.822 26.1448C432.069 24.5244 433.814 23.2779 436.057 22.4053C438.326 21.5327 440.944 21.0965 443.91 21.0965C446.877 21.0965 449.545 21.4953 451.913 22.2931C454.306 23.066 456.401 24.113 458.196 25.4343L455.428 29.6974C453.783 28.5755 452.05 27.7155 450.23 27.1171C448.435 26.4939 446.354 26.1822 443.985 26.1822C441.019 26.1822 438.85 26.6435 437.478 27.5659C436.132 28.4634 435.459 29.7223 435.459 31.3428C435.459 32.5145 435.771 33.4744 436.394 34.2223C437.042 34.9702 438.077 35.6433 439.498 36.2416C440.944 36.815 443.088 37.4881 445.93 38.261C448.772 39.0338 451.103 39.8939 452.923 40.8413C454.743 41.7886 456.164 43.0351 457.186 44.5808C458.208 46.1016 458.719 48.0461 458.719 50.4145C458.719 53.082 457.946 55.3008 456.401 57.0709C454.855 58.816 452.823 60.0999 450.305 60.9226C447.812 61.7453 445.082 62.1567 442.115 62.1567C435.933 62.1567 430.797 60.3866 426.709 56.8465L430.299 52.6956C431.894 54.0419 433.702 55.0889 435.721 55.8368C437.74 56.5848 439.872 56.9587 442.115 56.9587Z" fill="white"/>
<path d="M31.83 21.6947L5.42877 37.887L31.83 54.2288L28.4644 58.8284L0.0438232 41.0656V34.6336L28.8009 16.8707L31.83 21.6947Z" fill="#07838C"/>
<path d="M524.048 34.6336V41.0656L495.665 58.8284L492.262 54.1914L518.663 37.887L492.262 21.62L495.291 16.8707L524.048 34.6336Z" fill="#07838C"/>
<path d="M459.223 66.7563L491.233 0.753296L496.244 3.2214L464.309 69L459.223 66.7563Z" fill="#07838C"/>
</svg>
